<svg width="42" height="47" viewBox="0 0 42 47" fill="none" xmlns="http://www.w3.org/2000/svg">
<path d="M0.744751 10.4211C0.744751 10.4211 0.788243 27.7251 0.747272 33.8099C0.736697 35.3754 4.35693 37.1258 4.35693 37.1258L37.3575 32.0167L37.2841 6.13461L32.0862 4.39954L1.16315 9.51796L0.744751 10.4211Z" fill="white"/>
<path d="M13.2198 7.33575C13.2198 7.33575 12.0534 -0.0265504 23.1042 0.438363C23.1042 0.438363 26.3586 0.918741 26.5017 6.32915C26.5017 6.32915 24.8565 7.62675 23.9267 6.58961L23.1428 3.61175L21.8175 3.16149C21.8175 3.16149 16.2943 3.22424 16.2123 6.06925C16.2345 6.89658 16.0593 7.71731 15.7012 8.46347C15.7012 8.46347 13.8855 9.0475 13.2198 7.33575Z" fill="white"/>
<path d="M36.1126 30.8627C36.1156 29.0607 36.1179 27.2588 36.1194 25.4568C36.1205 23.9347 36.1217 22.4126 36.1139 20.8905C36.1135 20.8087 36.2337 20.5805 35.9576 20.6661C36.1992 20.4553 36.4207 20.2226 36.6193 19.9709C36.607 19.9384 36.6054 19.9113 36.5934 19.9055C36.0525 19.6421 36.1021 19.1815 36.1553 18.693C36.1822 18.3117 36.1858 17.9291 36.1664 17.5474C36.1644 17.4009 36.1221 17.2548 36.1217 17.1085C36.1182 15.633 36.1266 14.1576 36.1173 12.6822C36.1104 11.6023 36.0845 10.5223 36.0623 9.44244C36.0528 8.98952 35.9661 8.93489 35.5229 8.90687C34.4723 8.88201 33.4222 8.97495 32.3922 9.18373C31.5575 9.31771 30.7156 9.40728 29.879 9.53069C29.0708 9.64989 28.2662 9.79339 27.4583 9.91483C26.5313 10.0541 25.6016 10.1744 24.6749 10.3146C23.622 10.4739 22.5721 10.6518 21.5194 10.8112C20.5926 10.9514 19.6628 11.0708 18.7362 11.2112C17.8194 11.3501 16.9056 11.5081 15.9892 11.6495C15.2083 11.77 14.4251 11.8756 13.6439 11.9939C12.8179 12.1189 10.3815 12.4258 9.55432 12.5422C9.01623 12.6178 8.47457 12.6731 7.93277 12.7149C7.46122 12.7512 6.98679 12.778 6.51454 12.7676C6.13648 12.7535 5.76001 12.7112 5.38818 12.6411C4.88077 12.5532 4.63656 12.1271 4.36152 11.7624C3.89691 11.0558 3.32548 10.4255 2.66763 9.89403C2.3033 9.6751 1.92245 9.48488 1.52856 9.32506C5.32669 8.60432 13.481 7.35242 13.4662 7.56365C13.4214 8.19846 15.9406 8.38419 16.3957 8.25813C16.3957 8.14033 16.473 7.98646 16.3957 7.88449C15.2185 6.32867 21.3039 6.19266 23.31 5.87386C23.31 6.00657 23.4617 6.29659 23.4441 6.40137C23.3996 6.66652 23.5535 6.6909 23.7749 6.74111C25.137 7.12733 25.1348 4.61699 24.8448 3.94268C24.4869 3.11037 23.7777 1.88105 22.9185 1.68605C22.2393 1.54103 21.5377 1.53379 20.8556 1.66476C20.1457 1.82253 19.4058 1.77758 18.7202 1.53505C18.5837 1.48087 18.4332 1.46059 18.2988 1.40246C18.2167 1.35432 18.1411 1.29592 18.0736 1.22866C18.1428 1.14923 18.1992 1.01976 18.2831 0.998222C19.0095 0.811926 19.7368 0.624131 20.4723 0.480116C20.9274 0.400366 21.3875 0.352223 21.8492 0.336052C23.6896 0.235963 25.7947 2.44033 26.0593 4.28018C26.0897 4.49162 26.1218 4.70278 26.1579 4.94623C26.6937 4.86218 26.2152 5.4245 26.7367 5.34284C28.8103 5.01829 30.8802 4.66699 32.9593 4.38286C33.7723 4.20321 34.6198 4.2633 35.3992 4.55592C35.7433 4.71518 36.064 4.92087 36.3523 5.16712C37.013 5.73091 37.562 6.4139 37.9706 7.18041C38.1541 7.5259 38.255 7.90928 38.2653 8.30036C38.2908 11.531 38.2941 14.7618 38.2758 17.9927C38.2848 18.6546 38.0395 19.295 37.5903 19.7817C37.4807 19.9129 37.4194 20.0778 37.4167 20.2488C37.4069 23.4984 37.4047 26.7481 37.4097 29.9978C37.4098 30.1529 37.4081 30.3076 37.397 30.4613L36.1126 30.8627Z" fill="#FFB7A4"/>
<path d="M5.14461 37.4465C4.99522 37.4465 4.8174 37.435 4.61766 37.4203C4.52031 37.4131 4.4322 37.406 4.36651 37.4044C4.32575 37.4032 4.28555 37.3947 4.2478 37.3792L3.69899 37.1526C3.67364 37.1422 3.64962 37.1288 3.62735 37.1127L2.32671 36.1585C2.12647 36.0091 1.88737 35.8351 1.64995 35.6616C1.42884 35.5008 1.20942 35.3405 1.02453 35.2031C0.998752 35.1839 0.97585 35.1611 0.95666 35.1353C0.666501 34.8353 0.486368 34.446 0.445607 34.0306L0.416612 33.8697C0.4129 33.8501 0.411009 33.8301 0.411149 33.8101C0.406737 32.5779 0.408418 27.2415 0.410028 22.212L0.412199 15.9788C0.412199 14.2957 0.4122 13.0532 0.411149 12.6225C0.411009 12.6016 0.41283 12.5807 0.416612 12.5602C0.50997 12.0512 0.736747 11.5762 1.07376 11.1835C1.17517 11.0583 1.30292 10.9568 1.44782 10.8863C1.59273 10.8158 1.75136 10.7779 1.91251 10.7753H1.91693C2.071 10.7754 2.22326 10.8083 2.36376 10.8717C2.50418 10.9351 2.62954 11.0276 2.73159 11.143C3.09703 11.5789 3.4115 12.0551 3.66888 12.5623C3.7913 12.7916 3.85854 13.0462 3.86533 13.3059C3.87794 13.795 3.86204 14.577 3.86204 14.577V35.6978L3.9895 36.2384L4.18981 36.5207L4.55364 36.7149C4.56996 36.7235 4.58551 36.7334 4.60015 36.7445L4.66689 36.7495C4.87931 36.773 5.09334 36.7775 5.30653 36.7631L35.6333 32.0182C35.7017 31.9913 35.8041 31.9552 35.908 31.9186C36.0043 31.8847 36.1022 31.8507 36.1673 31.8256C36.2243 31.7758 36.2976 31.7145 36.3725 31.6521C36.459 31.5799 36.5482 31.5061 36.6128 31.4486L36.8573 31.0032L36.9519 30.3931L36.9482 19.9632C36.9482 19.8737 36.9838 19.7879 37.0472 19.7247C37.2645 19.5073 37.4608 19.2699 37.6332 19.0155C37.6424 18.9581 37.655 18.9012 37.6709 18.8454C37.6917 18.766 37.7114 18.6938 37.7251 18.6549C37.7513 18.5619 37.7978 18.2725 37.8192 18.1166L37.8542 17.6821C37.9023 17.2752 37.9159 16.8651 37.8947 16.4559C37.8898 16.219 37.8855 15.9931 37.8915 15.8042C37.8882 13.9899 37.8882 11.931 37.8882 10.1062C37.8816 9.8649 37.8855 9.60717 37.8893 9.34671C37.9201 8.75861 37.8863 8.16891 37.7886 7.58817C37.5743 7.11851 37.2973 6.68004 36.9651 6.28482C36.5408 5.70752 36.0123 5.21467 35.4068 4.83158C35.2283 4.75012 35.043 4.68436 34.8531 4.63519C34.7817 4.63106 34.7108 4.62028 34.6413 4.60291C34.5735 4.58883 34.505 4.57819 34.4362 4.57111C34.4108 4.57013 34.3856 4.56607 34.3612 4.55914C34.0945 4.52482 33.8246 4.52517 33.558 4.56026C33.4119 4.57118 33.2762 4.58155 33.1678 4.58267C31.6494 4.79166 30.3943 4.99686 29.0653 5.2146C28.2631 5.34536 27.4331 5.48165 26.4909 5.62607C26.4473 5.63279 26.4028 5.63076 26.3599 5.62025C26.317 5.60975 26.2767 5.59091 26.2411 5.56478C26.2056 5.53866 26.1755 5.50581 26.1527 5.46806C26.1298 5.43031 26.1146 5.38843 26.1079 5.3448C26.1012 5.30124 26.1031 5.2567 26.1137 5.21383C26.1242 5.17104 26.1431 5.13063 26.1692 5.09505C26.1953 5.05954 26.2282 5.02943 26.2659 5.0066C26.3037 4.98369 26.3455 4.9685 26.3891 4.96184C27.3286 4.81736 28.157 4.6817 28.9569 4.55087C30.2903 4.33257 31.5499 4.12631 33.118 3.91347C33.2559 3.90906 33.3769 3.89982 33.5065 3.88994C33.8386 3.84666 34.1753 3.85086 34.5062 3.90255C34.5751 3.90906 34.6687 3.9244 34.7601 3.94135C34.8307 3.95395 34.8996 3.96712 34.9456 3.97034C35.216 4.03141 35.4788 4.12246 35.7291 4.24173C36.4165 4.67007 37.0169 5.22441 37.4986 5.87553C37.8834 6.3356 38.1983 6.84974 38.4331 7.40152C38.5518 8.04585 38.5948 8.70174 38.5612 9.35602C38.5579 9.60766 38.5541 9.85664 38.5601 10.0979C38.5601 11.9309 38.5601 13.9888 38.5634 15.8147C38.5574 16.0045 38.5623 16.2184 38.5667 16.4422C38.5902 16.8843 38.5746 17.3276 38.5202 17.7669L38.4873 18.1893C38.4588 18.4157 38.4177 18.6404 38.3642 18.8623C38.3478 18.9105 38.3358 18.9603 38.3216 19.0144C38.2967 19.1304 38.2606 19.2436 38.2138 19.3526C38.0381 19.6186 37.8394 19.8686 37.6201 20.1V30.4445L37.515 31.1471C37.5108 31.176 37.5024 31.2042 37.4904 31.2308L37.4143 31.4037L37.1676 31.8321C37.1508 31.8604 37.1303 31.8862 37.1063 31.9087C37.0351 31.9744 36.9175 32.0734 36.8032 32.1681C36.714 32.2425 36.6275 32.3147 36.5733 32.3639C36.5465 32.3885 36.5158 32.4085 36.4826 32.423C36.4169 32.4515 36.2729 32.503 36.1312 32.5527C36.0191 32.5921 35.908 32.631 35.8522 32.6545C35.8272 32.6648 35.8012 32.6721 35.7745 32.6764L5.42475 37.4246C5.33231 37.4411 5.23846 37.4484 5.14461 37.4465ZM1.46498 34.6927C1.63951 34.8223 1.84248 34.9701 2.04607 35.1184C2.28574 35.2929 2.52701 35.4691 2.72668 35.6179L3.24159 35.9954L3.19894 35.8133C3.19298 35.7881 3.19004 35.7624 3.19018 35.7367V14.5699C3.19018 14.5611 3.20545 13.8 3.1934 13.3234C3.18899 13.1682 3.14872 13.0162 3.07574 12.8791C2.84287 12.4183 2.55853 11.9853 2.22824 11.5884C2.18923 11.5443 2.14125 11.509 2.0876 11.4848C2.03396 11.4605 1.97576 11.4479 1.91693 11.4478C1.85915 11.4439 1.8013 11.4544 1.74856 11.4784C1.69589 11.5023 1.64995 11.539 1.61486 11.5851C1.34697 11.8882 1.16376 12.2566 1.08357 12.6532C1.08413 13.1122 1.08413 14.3352 1.08413 15.9788L1.08252 22.212C1.08083 27.2015 1.07922 32.4925 1.08308 33.7783L1.10717 33.9119C1.13105 34.206 1.25775 34.4825 1.46498 34.6927Z" fill="#FC7C54"/>
<path d="M16.347 7.23623C16.2624 7.23609 16.181 7.20422 16.119 7.14679C16.0569 7.08936 16.0188 7.01071 16.0122 6.92642C16.0056 6.84216 16.031 6.75847 16.0833 6.69208C16.1356 6.62568 16.211 6.58142 16.2944 6.56818L23.4655 5.42463C23.5092 5.41742 23.5539 5.41896 23.597 5.42912C23.64 5.43927 23.6807 5.4579 23.7167 5.48374C23.7525 5.50966 23.783 5.54243 23.8062 5.58011C23.8294 5.61779 23.845 5.65975 23.852 5.70345C23.8589 5.74715 23.8572 5.79183 23.8469 5.83491C23.8366 5.87798 23.8179 5.91853 23.7918 5.95439C23.7657 5.99018 23.7329 6.0205 23.6952 6.04354C23.6573 6.06666 23.6154 6.08199 23.5716 6.08886L16.4006 7.23238C16.3828 7.23497 16.3649 7.2363 16.347 7.23623Z" fill="#FC7C54"/>
<path d="M23.2703 22.7341C23.1856 22.7339 23.1041 22.7019 23.0421 22.6443C22.9801 22.5866 22.9421 22.5078 22.9357 22.4234C22.9294 22.339 22.9551 22.2552 23.0078 22.189C23.0605 22.1227 23.1363 22.0788 23.2199 22.0661C27.1857 21.4554 32.335 20.7178 36.0333 20.2303C36.3935 20.1036 36.7363 19.9321 37.0537 19.7199C37.0829 19.6877 37.1182 19.6617 37.1575 19.6434C37.1969 19.6252 37.2395 19.6149 37.2829 19.6135C37.3263 19.612 37.3695 19.6192 37.41 19.6348C37.4505 19.6503 37.4875 19.6738 37.5188 19.704C37.5839 19.7669 37.622 19.8527 37.6248 19.9433C37.6277 20.0338 37.5951 20.1218 37.5341 20.1887C37.1106 20.5085 36.6324 20.7483 36.123 20.8967C32.4275 21.3836 27.2836 22.1207 23.3217 22.7302C23.3047 22.7329 23.2875 22.7341 23.2703 22.7341Z" fill="#FC7C54"/>
<path d="M0.746879 12.9576C0.665077 12.9576 0.586146 12.9277 0.524795 12.8736C0.463513 12.8195 0.423943 12.7449 0.413647 12.6638L0.204674 11.0097C0.150928 10.5868 0.241001 10.158 0.460431 9.79235C0.679854 9.42677 1.01582 9.14557 1.41439 8.99401C1.64173 8.90002 1.87614 8.82397 2.11531 8.7664C4.07689 8.4179 6.29838 8.09503 8.44702 7.7826C10.0425 7.55064 11.6917 7.31098 13.1668 7.0697C13.2548 7.05534 13.3448 7.07649 13.4171 7.12846C13.4895 7.1805 13.5382 7.25915 13.5526 7.34711C13.5669 7.43501 13.5458 7.52508 13.4938 7.59742C13.4417 7.66977 13.3631 7.71845 13.2752 7.7328C11.7945 7.9752 10.1421 8.21542 8.54388 8.44794C6.40014 8.75932 4.18411 9.08156 2.23676 9.42789C2.03834 9.47803 1.84392 9.54296 1.65518 9.62217C1.39723 9.71994 1.17977 9.90161 1.03774 10.1381C0.895636 10.3745 0.837366 10.6518 0.872174 10.9255L1.08116 12.5795C1.09223 12.668 1.06778 12.7573 1.01309 12.8278C0.958458 12.8983 0.877987 12.9442 0.789531 12.9555C0.775384 12.957 0.761096 12.9577 0.746879 12.9576Z" fill="#FC7C54"/>
<path d="M20.1071 26.4532C20.0568 26.4522 20.0066 26.4485 19.9566 26.4423C19.8758 26.451 19.7942 26.4358 19.7219 26.3985C19.5851 26.3201 19.4577 26.2263 19.3422 26.1189C18.8623 25.7124 18.8328 25.6528 18.8125 25.5285C18.7707 25.3057 18.7602 25.0781 18.7814 24.8523L18.9137 20.6895C18.9144 20.6684 18.917 20.6473 18.9214 20.6266L18.9761 20.381C18.9847 20.3438 18.9992 20.3083 19.0193 20.2759L19.1583 20.0543C19.1779 20.0233 19.2023 19.9955 19.2306 19.9722L19.4221 19.8157C19.4461 19.7963 19.4719 19.7793 19.4992 19.7648C19.7173 19.6765 19.9472 19.6206 20.1815 19.5991C20.2948 19.5865 20.5519 19.5433 20.8551 19.4923C21.431 19.3765 22.0142 19.3003 22.6005 19.2642C22.634 19.2668 22.667 19.2742 22.6984 19.2861C22.7597 19.3102 22.914 19.3917 22.9709 19.4229C22.992 19.4348 23.0118 19.4489 23.03 19.465L23.2986 19.703C23.4026 19.7931 23.4901 19.9004 23.5575 20.0203C23.6658 20.1533 23.6855 20.3038 23.622 21.9255C23.6127 22.1564 23.605 22.3332 23.6067 22.383L23.5241 25.0181C23.5234 25.0394 23.5209 25.0607 23.5164 25.0816L23.4617 25.3267C23.4536 25.3624 23.4397 25.3966 23.4207 25.4279L23.2795 25.6539C23.2565 25.69 23.227 25.7216 23.1924 25.7469L22.9998 25.8875C22.975 25.906 22.9475 25.9208 22.9183 25.9313L22.688 26.0167C22.668 26.0243 22.6473 26.0298 22.6262 26.0331L22.2092 26.0993C21.638 26.189 20.5864 26.3548 20.2723 26.4276C20.2191 26.4455 20.1632 26.4541 20.1071 26.4532ZM19.9791 25.7682C19.9961 25.7699 20.0136 25.7721 20.0305 25.7737C20.0502 25.7759 20.0704 25.7786 20.0885 25.7802L20.0891 25.7797C20.3758 25.7091 21.2425 25.5707 22.1053 25.435L22.4862 25.3748L22.6415 25.3173L22.7439 25.2424L22.8178 25.1242L22.8533 24.9661L22.9349 22.3884C22.9326 22.3747 22.9392 22.1701 22.9501 21.8993C22.9655 21.508 22.9999 20.6277 22.9808 20.376L22.9792 20.3738C22.9085 20.3327 22.8563 20.2662 22.8331 20.1878L22.6125 19.993C22.5803 19.9755 22.537 19.9525 22.5009 19.9345C22.2372 19.9432 21.4198 20.08 20.9656 20.1555C20.6472 20.2092 20.3769 20.254 20.2516 20.2682C20.1058 20.2823 19.962 20.312 19.8226 20.3569L19.699 20.4581L19.6202 20.5839L19.5846 20.7421L19.4533 24.8808C19.4429 25.0276 19.4439 25.1751 19.4566 25.3218C19.5293 25.3913 19.6732 25.5187 19.7947 25.6222C19.8526 25.6751 19.9142 25.7239 19.9791 25.7682Z" fill="#FC7C54"/>
<path d="M4.35692 37.4621C4.26854 37.4621 4.18372 37.4272 4.12083 37.3651C4.05794 37.3029 4.02208 37.2185 4.02096 37.1302C4.01991 37.0418 4.05367 36.9565 4.11502 36.8929C4.17637 36.8292 4.26034 36.7923 4.34873 36.7901L5.00041 36.7743L35.6855 31.9286L36.2403 31.7065L36.5888 31.4061L36.875 30.9542L36.9631 30.6707L37.0249 30.3254L37.0539 30.331C37.0173 29.8768 37.0178 28.7344 37.0195 25.6965C37.0211 23.0363 37.0228 20.0203 37.0195 19.895L37.3554 19.8824L37.583 19.6351C37.6952 19.7385 37.6952 19.7385 37.6919 25.697C37.6908 27.9267 37.6891 30.2314 37.6913 30.3725C37.6925 30.3979 37.6907 30.4231 37.6859 30.448L37.6148 30.8316L37.5043 31.196C37.4954 31.2244 37.4829 31.2514 37.467 31.2765L37.13 31.8082C37.1124 31.8363 37.0906 31.8613 37.0654 31.8827L36.637 32.252C36.609 32.2765 36.577 32.2959 36.5423 32.3095L35.8999 32.5667C35.8768 32.5761 35.8525 32.5829 35.8277 32.5869L5.06107 37.4424L4.36512 37.4621H4.35692Z" fill="#FC7C54"/>
<path d="M5.97556 25.5577C5.62678 25.5582 5.28025 25.5026 4.94911 25.393C4.38518 25.1556 3.9261 24.7222 3.65674 24.1729L3.56863 24.0311C3.39438 23.7924 3.26734 23.5226 3.19436 23.2361C3.18778 23.1925 3.18981 23.148 3.20038 23.1052C3.21096 23.0624 3.22987 23.022 3.25606 22.9865C3.28225 22.951 3.3151 22.921 3.35292 22.8982C3.39067 22.8754 3.43255 22.8602 3.47618 22.8537C3.51975 22.847 3.56429 22.8491 3.60708 22.8597C3.64994 22.8703 3.69022 22.8892 3.72572 22.9154C3.76123 22.9415 3.79128 22.9744 3.81411 23.0122C3.83687 23.0499 3.852 23.0918 3.85865 23.1354C3.92533 23.3265 4.01889 23.507 4.13656 23.6716L4.23454 23.8292C4.42594 24.2362 4.75336 24.5636 5.16034 24.755C5.63323 24.9075 6.13882 24.9276 6.62235 24.813C8.87717 24.4136 11.4384 24.0333 13.9149 23.665C15.6504 23.4073 17.3581 23.1535 18.9071 22.9029C18.9506 22.8958 18.9951 22.8974 19.0381 22.9076C19.081 22.9177 19.1215 22.9362 19.1573 22.9621C19.193 22.9879 19.2234 23.0205 19.2465 23.058C19.2697 23.0956 19.2852 23.1373 19.2923 23.1808C19.2993 23.2244 19.2977 23.2689 19.2875 23.3118C19.2774 23.3547 19.2589 23.3953 19.2331 23.431C19.2073 23.4668 19.1746 23.4971 19.1372 23.5203C19.0996 23.5434 19.0579 23.559 19.0143 23.566C17.4632 23.8177 15.7522 24.0721 14.0139 24.3304C11.5413 24.6976 8.98495 25.0772 6.7772 25.4668C6.51415 25.5264 6.24528 25.5569 5.97556 25.5577Z" fill="#FC7C54"/>
<path d="M14.8409 8.79874C14.3804 8.79468 13.9244 8.70811 13.4944 8.54325C13.3023 8.46817 13.1295 8.35093 12.9888 8.20014C12.8198 8.05348 12.8454 7.79638 12.8744 7.50307C12.8793 7.45216 12.8849 7.40621 12.8859 7.37561C12.8838 7.356 12.8832 7.33618 12.8843 7.3165C12.9091 6.23702 13.1178 5.16974 13.5014 4.16045C14.0821 2.88699 15.0552 1.83277 16.2783 1.15221C17.4645 0.612006 18.7322 0.272703 20.0296 0.148171L20.2244 0.119176C21.3593 -0.11113 22.5347 -0.0377115 23.6321 0.332016C24.0161 0.497035 24.3829 0.699748 24.7269 0.937173C24.7686 0.96296 24.8067 0.994238 24.8401 1.03018L25.2468 1.37381C25.2872 1.40936 25.4387 1.58227 25.564 1.72945C25.6313 1.80769 25.6893 1.87609 25.7107 1.89908C25.7212 1.90947 25.7534 1.95214 25.7621 1.96418L26.103 2.5097C26.4562 3.24872 26.6722 4.04573 26.7404 4.86193C26.7765 5.26569 26.8204 5.81288 26.8379 6.21503C26.835 6.31125 26.8125 6.40595 26.772 6.49328C26.7314 6.58069 26.6737 6.65891 26.6021 6.72335C26.5977 6.72825 26.5928 6.73267 26.5884 6.73701C26.2969 6.96631 25.9425 7.10113 25.5724 7.12334C25.0656 7.16872 24.5551 7.10989 24.072 6.95041C23.8347 6.88556 23.6172 6.76278 23.439 6.59309C23.3449 6.51913 23.2813 6.41323 23.26 6.29543C23.2563 6.27526 23.2544 6.25473 23.2545 6.23415L23.2539 6.00709C23.2895 5.38216 23.2267 4.75555 23.068 4.15002C22.8059 3.41688 22.1138 3.43929 21.091 3.56129L20.5582 3.64176C19.8119 3.73582 19.0723 3.87688 18.3439 4.06415C16.6799 4.58998 16.3801 5.92444 16.4381 7.90522C16.4392 7.93617 16.4359 7.96713 16.4282 7.99711C16.3237 8.41074 15.927 8.67176 15.2485 8.77297C15.1134 8.79012 14.9772 8.79874 14.8409 8.79874ZM13.5261 7.78812C13.5898 7.8431 13.6623 7.88694 13.7405 7.91783C14.1901 8.09383 14.6755 8.15875 15.1555 8.10713C15.6031 8.04039 15.729 7.92273 15.7646 7.86089C15.7153 5.95352 15.9834 4.10519 18.1507 3.42017C18.9101 3.22302 19.6813 3.07482 20.4596 2.97642L20.998 2.89546C21.9528 2.78326 23.2392 2.63114 23.7032 3.9301C23.8881 4.6063 23.9635 5.30771 23.9265 6.00765V6.13133C24.03 6.21285 24.1484 6.27344 24.275 6.30972C24.6673 6.44146 25.0824 6.49104 25.4946 6.45525C25.7233 6.44447 25.9446 6.37044 26.1337 6.24129C26.1481 6.22757 26.1607 6.21187 26.1709 6.19479C26.1496 5.85119 26.1058 5.31605 26.0714 4.92539C26.0128 4.20464 25.8264 3.50001 25.5209 2.84454L25.2047 2.33902C25.2014 2.33902 25.1325 2.25855 25.0531 2.1661C24.9557 2.05176 24.8408 1.91661 24.8003 1.87667L24.3697 1.50842C24.3476 1.49376 24.3265 1.47786 24.3062 1.4608C24.0142 1.26481 23.7048 1.09596 23.382 0.95637C22.3951 0.633185 21.3409 0.573766 20.324 0.784018L20.1297 0.813013C18.9088 0.926212 17.7152 1.24089 16.5972 1.74428C15.5088 2.35702 14.641 3.29698 14.117 4.43079C13.7694 5.35702 13.5802 6.33514 13.5573 7.3242C13.5592 7.40628 13.5546 7.48843 13.5436 7.56989C13.5382 7.62402 13.5282 7.72081 13.5261 7.78812Z" fill="#FC7C54"/>
<path d="M41.1795 37.3778L41.1789 36.1611L41.1783 34.9451V33.9251L41.1771 33.2485L41.1687 32.8704L41.1477 32.6982L41.1214 32.6433L41.0981 32.6032L41.0463 32.5472L40.9694 32.4839L40.8764 32.4152L40.7758 32.342L40.6687 32.2636L40.5534 32.1793L40.4292 32.0882L40.2946 31.9894L40.1489 31.8824L39.9906 31.7664L39.8194 31.6408L39.6348 31.5055L39.4396 31.3622L39.2372 31.2137L39.0307 31.0622L38.8229 30.9099L38.6147 30.7572L38.4058 30.604L38.1963 30.4503L37.9868 30.2966L37.7803 30.1454L37.5814 29.9994L37.3937 29.8618L37.2202 29.7342L37.0568 29.6146L36.8994 29.4991L36.7432 29.3846L36.5858 29.2691L36.4344 29.1578L36.2979 29.0576L36.1863 28.9752L36.1055 28.9163L36.0489 28.8818L35.9945 28.8628L35.9577 28.8531L35.8715 28.8526L35.8178 28.8589L35.7398 28.7901L35.5519 28.6732L35.3209 28.5656L35.0512 28.4691L34.7472 28.3855L34.6987 28.3843L34.3743 28.3176L34.0263 28.2659L33.6626 28.229L33.2886 28.2088L32.9102 28.2065L32.5332 28.2212L32.1643 28.2515L31.8109 28.2979L31.4798 28.3607L31.1747 28.4379L31.1189 28.4399L30.8368 28.5321L30.5923 28.6361L30.3902 28.7502L30.2333 28.8724L30.1238 29.0005L30.0764 29.0412L30.0157 29.1751L30.0075 29.3107L29.9825 29.395L29.9733 29.5423L29.972 29.7764V29.7871L29.4834 29.8651L28.5573 30.0128L27.7061 30.1486L26.9672 30.2664L26.3689 30.3618L25.9017 30.4364L25.5473 30.4929L25.287 30.5344L25.1033 30.5645L24.9826 30.5892L24.9116 30.6148L24.8724 30.6461L24.8475 30.7044L24.8323 30.8737L24.8257 31.2503L24.8244 31.9268L24.8251 32.9467L24.8267 34.1626L24.8286 35.3791L24.8302 36.4008L24.8337 37.0808L24.8517 37.4648L24.8992 37.647L24.9179 37.6724L24.9651 37.7112L25.0432 37.7691L25.1528 37.8493L25.2867 37.9475L25.4359 38.057L25.5914 38.171L25.7462 38.2846L25.9027 38.3993L26.0651 38.5184L26.2377 38.645L26.4236 38.7814L26.6204 38.9258L26.8247 39.0756L27.0325 39.2281L27.241 39.3809L27.4495 39.5338L27.6579 39.6868L27.8664 39.8397L28.0742 39.9921L28.2785 40.1419L28.4753 40.2863L28.6612 40.4227L28.8333 40.5489L28.9919 40.6651L29.1379 40.7723L29.2726 40.871L29.3969 40.9622L29.5117 41.0465L29.6177 41.1242L29.7157 41.1962L29.8064 41.2622L29.8909 41.32L29.9702 41.3664L30.0453 41.3985L30.084 41.4343L30.1543 41.448L30.2409 41.4469L30.3616 41.4324L30.5349 41.4054L30.7793 41.3665L31.1154 41.3128L31.5647 41.2412L32.1485 41.1481L32.8781 41.0318L33.7245 40.8967L34.6489 40.7493L35.612 40.5957L36.5756 40.4421L37.4999 40.2946L38.3468 40.1595L39.0773 40.0431L39.6623 39.9497L40.113 39.8778L40.4502 39.8241L40.6944 39.7851L40.8649 39.7572L40.9733 39.7353L41.029 39.7136L41.1022 39.6625L41.14 39.4923L41.1633 39.4597L41.1783 39.0794L41.1801 38.3998L41.1795 37.3778ZM36.0938 31.4501L36.0927 31.3568L36.0984 31.3744L36.0938 31.4501ZM36.1058 31.3405L36.1056 31.3395L36.1159 31.354L36.1058 31.3405ZM36.1009 31.334L36.0924 31.3227V31.3209L36.1009 31.333L36.1009 31.334ZM29.9705 31.3348L29.9698 31.4044L29.9541 31.5272L29.9625 31.3893L29.9199 31.4466L29.9705 31.3348Z" fill="white"/>
<path d="M25.0995 30.622L30.0025 29.8373C30.0025 29.9861 30.0025 30.1184 30.0025 30.2507C30.0025 30.55 30.0035 30.8492 30.0014 31.1484C30.0053 31.1974 29.9967 31.2465 29.9764 31.2912C29.9199 31.3497 29.8786 31.4211 29.8562 31.4994C29.8338 31.5775 29.8308 31.66 29.8478 31.7396C29.8646 31.8191 29.9008 31.8933 29.9531 31.9556C30.0053 32.0179 30.0722 32.0665 30.1475 32.0969C30.4962 32.3123 30.8839 32.4566 31.2885 32.5214C31.9175 32.6585 32.5614 32.7149 33.2045 32.6891C33.4808 32.6695 33.7555 32.6316 34.0267 32.576C34.2352 32.5383 34.2802 32.4731 34.2815 32.259C34.2839 31.8202 34.2822 31.3814 34.2821 30.9425C34.2821 30.8278 34.2825 30.7131 34.2818 30.5984C34.2805 30.3812 34.1989 30.2901 33.9828 30.2837C33.5348 30.2702 33.0848 30.2848 32.6389 30.2475C31.9416 30.2337 31.2566 30.0615 30.6356 29.744C30.5155 29.6759 30.4096 29.5855 30.3235 29.4776C30.2856 29.4189 30.2608 29.3528 30.2507 29.2836C30.2406 29.2144 30.2455 29.144 30.265 29.0769C30.2846 29.0098 30.3183 28.9477 30.3641 28.8948C30.4097 28.8419 30.4663 28.7995 30.5297 28.7704C30.83 28.5819 31.1653 28.456 31.5154 28.4001C32.5601 28.1923 33.6362 28.1993 34.6782 28.4205C35.0916 28.4892 35.4857 28.6455 35.8338 28.879C35.9014 28.929 36.0172 28.9092 36.0964 28.9497C36.2042 29.0115 36.3068 29.0817 36.4034 29.1598C37.4804 29.9498 38.5572 30.74 39.6336 31.5306C40.102 31.8741 40.575 32.2116 41.0381 32.5621C41.1102 32.6272 41.1594 32.7139 41.1784 32.8093C41.2021 32.9366 41.2115 33.0662 41.2065 33.1956C41.2083 35.1605 41.2087 37.1254 41.2076 39.0904C41.2075 39.2346 41.1937 39.3788 41.1842 39.523C41.1856 39.5885 41.1613 39.6518 41.1163 39.6995C41.0713 39.7472 41.0094 39.7752 40.944 39.7775C40.3979 39.8614 39.8529 39.9528 39.3073 40.0401C38.2208 40.214 37.1343 40.3874 36.0476 40.5604C34.8874 40.7457 33.7271 40.931 32.5668 41.1164C31.8298 41.234 31.0934 41.3514 30.3578 41.4684C30.3578 40.4348 30.3578 39.404 30.3576 38.3761C30.3561 37.1494 30.3536 35.9227 30.3502 34.696C30.3496 34.6457 30.3353 34.5965 30.3087 34.5538C30.2821 34.5111 30.2442 34.4765 30.1993 34.4538C29.9484 34.2788 29.7241 34.0664 29.4775 33.8849C28.4223 33.1083 27.3621 32.3385 26.3054 31.5641C25.9019 31.2684 25.5027 30.9668 25.1014 30.6679L25.0995 30.622Z" fill="#FFB7A4"/>
<path d="M41.1218 32.989C41.0752 32.9892 41.0292 32.9792 40.9868 32.9599C40.9444 32.9407 40.9067 32.9125 40.8761 32.8774C40.8637 32.865 40.8524 32.8517 40.8422 32.8375L40.7557 32.7423L35.9265 29.201C35.9183 29.1999 35.9106 29.1989 35.903 29.1973L35.8953 29.1984C35.7984 29.2122 35.6999 29.1879 35.6206 29.1305C35.6163 29.1267 35.5878 29.1021 35.5698 29.0862L35.4226 28.9976C35.3459 28.9523 35.2904 28.8785 35.2681 28.7923C35.2458 28.7062 35.2585 28.6147 35.3036 28.5379C35.3487 28.4611 35.4223 28.4054 35.5084 28.3828C35.5945 28.3603 35.686 28.3727 35.7629 28.4175L35.9445 28.522C35.9795 28.5202 36.0144 28.5253 36.0474 28.5368C36.0665 28.5384 36.0853 28.5416 36.1038 28.5467C36.1447 28.5588 36.1844 28.5746 36.2225 28.5938L41.2597 32.287C41.2809 32.3041 41.2998 32.3237 41.316 32.3456L41.3576 32.4014L41.3702 32.4195C41.379 32.429 41.3872 32.4391 41.3948 32.4496C41.4318 32.5001 41.4541 32.5598 41.4592 32.6222C41.4642 32.6846 41.452 32.7472 41.4237 32.8031C41.3955 32.8589 41.3523 32.9059 41.299 32.9387C41.2457 32.9715 41.1844 32.9889 41.1218 32.989Z" fill="#FC7C54"/>
<path d="M33.1807 30.6369L32.3622 30.6134L31.5863 30.5176L30.8985 30.3534L30.3371 30.1269L30.1111 29.989L29.9229 29.8293C29.9037 29.8123 29.8864 29.7932 29.8715 29.7723L29.7773 29.6405C29.7572 29.6123 29.7415 29.5811 29.7308 29.5481L29.6876 29.4135C29.6749 29.3738 29.6697 29.332 29.6723 29.2904L29.6805 29.1546C29.6831 29.1106 29.6944 29.0674 29.7137 29.0277C29.733 28.988 29.7599 28.9525 29.7929 28.9232C29.826 28.8939 29.8645 28.8713 29.9062 28.8569C29.9479 28.8425 29.9921 28.8364 30.0362 28.8391C30.0802 28.8418 30.1234 28.8531 30.1631 28.8724C30.2028 28.8918 30.2383 28.9187 30.2675 28.9518C30.2968 28.9849 30.3193 29.0234 30.3336 29.0651C30.3481 29.1069 30.354 29.1511 30.3513 29.1952L30.3469 29.2679L30.3962 29.3505L30.5105 29.4512L30.8564 29.6269L31.3871 29.791L32.0497 29.907L32.79 29.9623L33.1703 29.965L33.9199 29.9191L34.6027 29.809L35.1663 29.646L35.5597 29.4512L35.7249 29.2734L35.7293 29.2001C35.7357 29.1115 35.7765 29.029 35.8429 28.9701C35.9094 28.9112 35.9963 28.8806 36.085 28.8849C36.129 28.8876 36.1722 28.8989 36.2118 28.9181C36.2515 28.9374 36.287 28.9643 36.3163 28.9974C36.3456 29.0304 36.3681 29.0689 36.3824 29.1106C36.3969 29.1524 36.4028 29.1965 36.4002 29.2406L36.392 29.3757C36.3897 29.4168 36.3798 29.457 36.363 29.4944L36.3022 29.6285C36.289 29.6572 36.2719 29.6839 36.2513 29.7078L36.1403 29.8381C36.1253 29.8553 36.1089 29.871 36.091 29.8852L35.9312 30.0093L35.685 30.1527L35.4027 30.2747L34.7466 30.4657L33.9915 30.5871L33.1807 30.6369Z" fill="#FC7C54"/>
<path d="M30.154 41.7832C30.1324 41.7834 30.1107 41.7814 30.0894 41.7772L30.0194 41.7635C29.9971 41.7591 29.9753 41.7526 29.9543 41.7439L29.579 41.5184L24.8537 38.0495C24.8515 38.0478 24.8105 38.0172 24.8077 38.0149L24.7509 37.9701L24.7038 37.9312C24.6818 37.9129 24.6621 37.8919 24.6453 37.8688C24.6049 37.8112 24.5796 37.7445 24.5714 37.6746L24.5336 37.5318C24.5275 37.5089 24.5239 37.4855 24.5227 37.4618L24.5046 37.0776L24.4893 31.2515L24.515 30.6721C24.5179 30.6509 24.522 30.63 24.527 30.6092C24.5552 30.534 24.5961 30.4642 24.6479 30.4029C24.6625 30.3852 24.6788 30.3691 24.6967 30.3547C24.7285 30.3313 24.7633 30.312 24.8 30.2973L25.0359 30.2344L29.6391 29.5045L29.6555 29.2364C29.6571 29.2113 29.6615 29.1865 29.6687 29.1625L29.7622 28.9185C29.7811 28.8778 29.8056 28.8401 29.835 28.8063L29.9778 28.6536C29.9929 28.6372 30.009 28.6217 30.026 28.6071L30.1825 28.4846L30.4276 28.3423L31.0136 28.1196L31.7128 27.9653L32.4898 27.8811L32.8931 27.8657L33.699 27.8887L34.4634 27.9839L35.1402 28.1448L35.6939 28.368L35.9166 28.5038C35.9319 28.513 35.9872 28.559 36.0003 28.5711C36.0031 28.5732 36.0436 28.6088 36.0463 28.6115L36.1453 28.6969C36.1661 28.7148 36.1847 28.7352 36.2006 28.7576L36.2947 28.8895C36.315 28.9178 36.3307 28.9492 36.3412 28.9825L36.4113 29.2079C36.4183 29.232 36.4227 29.2568 36.4243 29.2818L36.4375 31.2565L36.4808 31.3894C36.4935 31.4289 36.4987 31.4706 36.4961 31.512L36.4879 31.6521C36.4857 31.6933 36.4757 31.7338 36.4583 31.7714L36.3954 31.9097C36.3824 31.9387 36.3652 31.9656 36.3445 31.9897L36.2296 32.1237C36.2154 32.1407 36.1995 32.1561 36.182 32.1696L36.0179 32.2982L35.7629 32.4459L35.4734 32.5707L34.7987 32.7677L34.0201 32.8924L33.1847 32.9439L32.341 32.9187L31.5416 32.8208L30.8335 32.6517L30.2563 32.4186L30.0232 32.2769L29.8312 32.1138C29.8115 32.0965 29.7939 32.0771 29.7786 32.0558L29.6818 31.9196C29.6622 31.8915 29.6467 31.8607 29.6358 31.8282L29.5909 31.6893C29.5782 31.6492 29.5731 31.6071 29.5757 31.5651L29.5844 31.425C29.5866 31.3845 29.5964 31.3448 29.6134 31.3079L29.6358 31.2576V30.1862L25.6667 30.8133L30.0987 34.0606L41.0407 32.3152C41.1042 32.305 41.1692 32.311 41.2297 32.3328C41.2901 32.3545 41.3441 32.3912 41.3865 32.4394C41.4243 32.4895 41.4501 32.5475 41.462 32.6091C41.4637 32.62 41.4724 32.684 41.473 32.6949L41.4899 33.2738L41.514 39.0732L41.4993 39.472C41.4984 39.4942 41.4952 39.5162 41.49 39.5377L41.4331 39.7368C41.4051 39.8139 41.358 39.8827 41.2963 39.9366C41.2723 39.9535 41.2473 39.9689 41.2213 39.9825C41.171 40.0059 41.1181 40.0234 41.0638 40.0345L40.1987 40.1669L30.1584 41.7832H30.154ZM30.1737 41.1086L30.1847 41.1108L30.322 41.0982L30.6941 41.0025L40.8296 39.3839L40.8422 39.0655L40.8127 33.0331L30.1064 34.7403C30.0019 34.7572 29.8947 34.7363 29.8044 34.6811L25.1612 31.2762L25.1929 37.3945L25.2274 37.5269L25.2493 37.5056L30.1737 41.1086ZM25.037 37.6976L25.0091 37.7458L25.0517 37.7031L25.037 37.6976ZM30.3039 31.6346L30.4227 31.7385L30.7822 31.9218L31.331 32.0914L32.016 32.2118L32.7814 32.2692L33.1743 32.272L33.9485 32.2243L34.6549 32.1111L35.2376 31.942L35.6458 31.7401L35.8214 31.5355L35.8061 31.4868C35.7889 31.4533 35.7773 31.4173 35.7717 31.3801C35.77 31.3675 35.7661 31.3282 35.7661 31.3156L35.7169 29.2374L35.6086 29.1225L35.7804 28.8249L35.5605 29.0787L35.3744 28.9584L34.9378 28.7855L34.3453 28.6454L33.6482 28.5589L32.9035 28.5376L32.1664 28.5825L31.4956 28.6908L30.9419 28.8511L30.5546 29.0427L30.3587 29.2325L30.3247 29.3069L30.3089 29.5619L30.3094 29.7808C30.3094 29.7884 30.3089 29.7993 30.3077 29.8103L30.3066 31.3281C30.3003 31.3826 30.2881 31.4362 30.27 31.4879L30.2503 31.5432L30.3039 31.6346Z" fill="#FC7C54"/>
<path d="M24.0344 42.7617C24.0112 41.2732 24.079 39.5635 24.0028 38.0821C23.8019 37.7504 23.3022 37.5289 23.0039 37.2663C21.9771 36.5133 20.9385 35.7515 19.9118 34.9984C19.6687 34.8204 19.3956 34.6199 19.1528 34.4414C19.0153 34.3393 18.8595 34.1932 18.6727 34.2428C17.378 33.3632 15.1421 33.4786 13.6917 33.9159C13.4107 33.9679 13.1619 34.1293 12.9998 34.3646C12.8376 34.5999 12.7755 34.89 12.827 35.171C11.3892 35.4012 9.8386 35.647 8.4023 35.8768C8.19955 35.9483 7.81288 35.8764 7.70243 36.0882C7.64353 38.1591 7.6976 40.3914 7.6887 42.4647C7.70474 42.6029 7.68527 42.9386 7.77289 43.0562C7.88004 43.1459 8.02978 43.2465 8.1417 43.3314C8.57935 43.6525 9.0376 43.9885 9.47546 44.3097C10.6316 45.1349 11.7603 46.0337 12.939 46.8182C15.0737 46.5977 17.2958 46.1273 19.4306 45.826C20.8952 45.5415 22.5322 45.4318 23.9572 45.0464C23.9654 45.0174 23.9901 44.8599 24.0183 44.8436C24.0471 44.2651 24.0309 43.3467 24.0344 42.7617ZM18.9488 36.834L18.9478 36.7408C18.9572 36.7515 18.949 36.8207 18.9488 36.834ZM18.9607 36.7244L18.9606 36.7235L18.971 36.7379L18.9607 36.7244ZM18.9559 36.718L18.9474 36.7066V36.7049L18.956 36.7169L18.9559 36.718ZM12.8255 36.7187C12.8249 36.7831 12.8193 36.8475 12.809 36.9111L12.8174 36.7732L12.7749 36.8305L12.8255 36.7187Z" fill="white"/>
<path d="M7.95416 36.006L12.8572 35.2214C13.0676 35.9622 12.3886 37.0723 13.002 37.481C14.0709 37.9848 16.3394 38.5794 17.1363 37.6435C17.6932 34.3675 15.357 36.3409 13.4902 35.1279C11.9253 33.1841 17.7977 33.398 18.6881 34.263C25.034 38.1987 24.1607 37.7235 24.0386 44.9071C20.8012 46.0382 16.7232 46.0895 13.2125 46.8524C13.3028 39.5195 14.1426 40.2667 7.95612 36.0519L7.95416 36.006Z" fill="#FFB7A4"/>
<path d="M13.0537 39.8385L13.2129 46.6527L23.7693 44.8884V38.1649L13.0537 39.8385Z" fill="white"/>
<path d="M23.9849 38.3776C23.9352 38.3777 23.8862 38.3668 23.8414 38.3456C23.7965 38.3244 23.7569 38.2935 23.7255 38.255C23.5656 38.0841 23.3835 37.9356 23.1838 37.8134C23.0481 37.7204 22.9124 37.6274 22.7898 37.5257L19.0905 34.8129C19.0358 34.7768 18.9832 34.7377 18.9329 34.6958C18.881 34.6492 18.8231 34.6098 18.7606 34.5787C18.7052 34.594 18.6466 34.5938 18.5913 34.5781C18.536 34.5624 18.4861 34.5317 18.4471 34.4895C18.3954 34.4498 18.3403 34.4148 18.2824 34.385C18.2049 34.341 18.1481 34.2681 18.1243 34.1821C18.1006 34.0963 18.112 34.0045 18.156 33.927C18.1999 33.8495 18.2729 33.7927 18.3588 33.7689C18.4447 33.7453 18.5365 33.7566 18.6139 33.8006C18.6709 33.8323 18.7316 33.8679 18.7885 33.9062C19.0004 33.9302 19.1985 34.0231 19.3526 34.1704C19.3893 34.2014 19.4276 34.2303 19.4675 34.2569L23.203 36.996C23.3261 37.0967 23.4448 37.1771 23.5635 37.2586C23.8165 37.415 24.0457 37.6068 24.2442 37.8282C24.2723 37.8623 24.2934 37.9015 24.3063 37.9437C24.3191 37.9859 24.3236 38.0302 24.3193 38.0741C24.315 38.118 24.3021 38.1607 24.2814 38.1996C24.2606 38.2385 24.2324 38.273 24.1983 38.301C24.1384 38.3508 24.0628 38.3779 23.9849 38.3776Z" fill="#FC7C54"/>
<path d="M15.8403 36.0232C15.7073 36.0232 15.5815 36.0204 15.4649 36.015C13.6068 35.9335 12.5114 35.3858 12.535 34.5503C12.5348 34.5057 12.5437 34.4616 12.5612 34.4206C12.5788 34.3797 12.6045 34.3428 12.6369 34.3122C12.6692 34.2816 12.7075 34.2579 12.7494 34.2427C12.7912 34.2275 12.8357 34.2209 12.8802 34.2236C12.9243 34.2248 12.9678 34.2347 13.0081 34.2527C13.0484 34.2707 13.0848 34.2964 13.1151 34.3284C13.1455 34.3605 13.1692 34.3983 13.1849 34.4395C13.2007 34.4808 13.2081 34.5247 13.2068 34.5688C13.1981 34.8927 14.0697 35.2807 15.4945 35.3436C17.2055 35.4104 18.5591 34.9967 18.5843 34.5841C18.5865 34.54 18.5975 34.4967 18.6167 34.4568C18.6359 34.4168 18.6628 34.3812 18.6959 34.3518C18.729 34.3225 18.7677 34.3001 18.8096 34.2858C18.8515 34.2716 18.8958 34.2659 18.94 34.269C19.0289 34.2744 19.1121 34.3149 19.1712 34.3815C19.2303 34.4483 19.2605 34.5357 19.2552 34.6246C19.1889 35.7409 17.1683 36.0232 15.8403 36.0232Z" fill="#FC7C54"/>
<path d="M13.059 47.1693C12.9372 47.1712 12.8169 47.1422 12.7093 47.085L12.6261 47.0282C10.953 45.8151 9.2228 44.561 7.55181 43.2993C7.50565 43.2645 7.46924 43.2183 7.44612 43.1653C7.42301 43.1123 7.41405 43.0542 7.41993 42.9967C7.34331 42.2684 7.32104 41.5354 7.35319 40.8037C7.36089 40.3644 7.36908 39.9337 7.35319 39.5414C7.36579 39.102 7.35704 38.6452 7.34884 38.1801C7.32048 37.4516 7.33421 36.7221 7.38989 35.9953C7.39675 35.9312 7.42175 35.8704 7.46202 35.82C7.50222 35.7696 7.55594 35.7317 7.61694 35.7107C7.7762 35.6319 7.95038 35.5875 8.128 35.5805C8.18893 35.5766 8.24951 35.5678 8.30911 35.5543C9.06473 35.4356 9.80557 35.3162 10.547 35.1975C11.2014 35.0919 11.8557 34.9869 12.4921 34.8884C12.4834 34.7185 12.5143 34.5488 12.5824 34.3929C12.6505 34.237 12.7539 34.0991 12.8844 33.99C13.9957 33.2365 15.5972 33.0548 17.6638 33.4395L17.7749 33.4696C18.2739 33.613 19.0284 33.8291 19.2402 34.5037C19.2984 34.9152 19.3156 35.3314 19.2916 35.7463C19.2743 36.0694 19.2807 36.3932 19.3108 36.7153C19.339 36.8346 19.3406 36.9586 19.3156 37.0786C19.2906 37.1985 19.2397 37.3116 19.1663 37.4097C18.7116 38.0466 17.4061 38.2299 16.4639 38.3125C16.4551 38.3131 16.3999 38.3141 16.3917 38.3141C15.2071 38.3322 13.4185 38.353 12.5539 37.3265C12.5353 37.3041 12.5195 37.2795 12.5069 37.2532C12.4624 37.1566 12.4379 37.0521 12.435 36.9458C12.4321 36.8395 12.4508 36.7338 12.4899 36.6349C12.4915 36.3362 12.4915 36.0139 12.491 35.6993V35.5691C11.8886 35.6626 11.2709 35.7617 10.6536 35.8613C9.93472 35.9767 9.21629 36.0922 8.52307 36.1988C9.39957 36.8439 10.2778 37.4883 11.1576 38.132L12.9501 39.4456C16.592 38.8668 20.2815 38.278 23.9217 37.6958C23.968 37.6886 24.0153 37.691 24.0606 37.7031C24.106 37.7152 24.1483 37.7365 24.1849 37.766C24.2214 37.7953 24.2515 37.832 24.2731 37.8736C24.2946 37.9153 24.3072 37.9609 24.3101 38.0078C24.3665 38.9473 24.3572 39.9813 24.3484 40.981C24.3424 41.5999 24.3369 42.2116 24.3468 42.7894C24.3353 43.0372 24.3468 43.2993 24.3583 43.5712C24.408 44.0933 24.3822 44.6198 24.2817 45.1345C24.2652 45.1959 24.2315 45.2513 24.1848 45.2944C24.138 45.3376 24.08 45.3665 24.0174 45.378C22.4088 45.6696 20.7334 45.9295 19.1122 46.1811C18.0058 46.353 16.9016 46.5242 15.815 46.7059C15.537 46.7546 15.2367 46.8 14.9324 46.846C14.4285 46.9225 13.9081 47.0013 13.4529 47.1004C13.3256 47.1421 13.1929 47.1654 13.059 47.1693ZM8.07925 42.855C9.70703 44.0817 11.3912 45.3024 13.0206 46.4837L13.0672 46.5177C13.0759 46.51 13.2357 46.464 13.2882 46.4492C13.7861 46.3398 14.3174 46.2594 14.8317 46.1811C15.131 46.1358 15.426 46.0914 15.7017 46.0432C16.7933 45.8605 17.9002 45.6887 19.0093 45.5169C20.5506 45.2773 22.1417 45.0304 23.6732 44.7563C23.7106 44.3719 23.715 43.9849 23.6864 43.5997C23.6743 43.3058 23.6628 43.0279 23.6749 42.7784C23.6645 42.2175 23.6699 41.5998 23.676 40.9749C23.6836 40.1181 23.6918 39.2361 23.6579 38.4192C20.091 38.9893 16.4809 39.5655 12.9167 40.1318C12.828 40.1455 12.7375 40.1234 12.665 40.0705L10.7604 38.6741C9.84605 38.0044 8.93229 37.334 8.01909 36.6628C8.00214 37.1438 8.01146 37.6619 8.02077 38.168C8.02952 38.6441 8.03828 39.1124 8.02511 39.5386C8.04101 39.9189 8.03331 40.3627 8.02567 40.8157C7.99668 41.4959 8.01454 42.1772 8.07925 42.855ZM13.1082 36.9385C13.791 37.6756 15.3482 37.6548 16.3829 37.6422C18.0469 37.4988 18.4966 37.1903 18.6191 37.019C18.6387 36.9935 18.6518 36.9637 18.6573 36.932C18.6628 36.9005 18.6607 36.868 18.6509 36.8373C18.6106 36.4689 18.6003 36.0978 18.6197 35.7277C18.6409 35.3704 18.63 35.0118 18.5874 34.6564C18.4955 34.3756 17.9932 34.2318 17.5894 34.1158L17.509 34.0928C15.6541 33.7509 14.2206 33.8958 13.2767 34.5355C13.1684 34.6186 13.1607 34.8069 13.1629 35.1045V35.1614L13.1635 35.6981C13.164 36.0407 13.164 36.3919 13.1618 36.7125C13.1616 36.7698 13.1467 36.8259 13.1186 36.8756C13.1094 36.8953 13.1057 36.917 13.1082 36.9385Z" fill="#FC7C54"/>
</svg>
