<svg width="23" height="25" viewBox="0 0 23 25" fill="none" xmlns="http://www.w3.org/2000/svg">
<path d="M16.8982 10.3528C19.9818 7.83214 26.2791 -1.25105 16.4205 0.356975C12.1209 1.00888 5.82346 5.18106 4.56398 10.0052C3.91253 8.70132 3.17421 7.48446 2.39247 6.26757C1.17641 4.61608 -0.169928 5.91989 1.13298 7.57138C4.99527 12.2508 7.22209 18.0659 7.47382 24.1297C7.77783 21.2179 7.3001 17.6542 6.12747 14.1773C6.69207 14.3511 7.34353 14.4381 7.90813 14.4381C9.90589 17.7411 12.9895 20.566 16.4205 21.8698C19.5909 23.1301 23.8036 22.3914 22.0664 17.3065C21.1544 14.525 19.0263 12.0913 16.8982 10.3528ZM17.3325 1.53041C22.8048 0.921959 16.9416 7.74522 15.0307 9.00556C13.2501 7.83214 10.9917 6.78909 8.82016 7.09332C10.3836 5.05069 14.2055 1.92154 17.3325 1.53041ZM8.77671 8.57097C10.2533 8.44061 11.8603 9.26635 13.1198 10.1355C11.9037 10.7439 10.6008 11.0916 9.25444 11.2221C7.25666 11.2221 6.82236 8.74477 8.77671 8.57097ZM16.3336 19.1753C13.7712 18.4365 11.3392 16.3504 9.60189 14.2642C11.0351 13.9601 12.4683 13.3951 13.7712 12.6128C14.249 12.3955 14.7267 12.0478 15.161 11.7436C16.6811 13.1343 18.288 15.0031 18.896 17.1326C19.5041 19.436 17.8537 19.6099 16.3336 19.1753Z" fill="#FFAF2C"/>
</svg>
